<mxfile host="app.diagrams.net" modified="2022-08-24T12:21:19.847Z" agent="5.0 (Macintosh; Intel Mac OS X 10_15_7) AppleWebKit/537.36 (KHTML, like Gecko) Chrome/104.0.5112.81 Safari/537.36 Edg/104.0.1293.54" etag="dJfZoumgBPh7X6mmCZ9P" version="20.2.7" type="github">
  <diagram id="aWJN8Z28Av88h7mdpylA" name="第 1 页">
    <mxGraphModel dx="1666" dy="769" grid="1" gridSize="10" guides="1" tooltips="1" connect="1" arrows="1" fold="1" page="1" pageScale="1" pageWidth="827" pageHeight="1169" math="0" shadow="0">
      <root>
        <mxCell id="0" />
        <mxCell id="1" parent="0" />
        <mxCell id="ZVE0ramNpkpX6An3514g-18" value="" style="rounded=0;whiteSpace=wrap;html=1;" vertex="1" parent="1">
          <mxGeometry x="750" y="290" width="250" height="800" as="geometry" />
        </mxCell>
        <mxCell id="ZVE0ramNpkpX6An3514g-4" value="" style="rounded=0;whiteSpace=wrap;html=1;" vertex="1" parent="1">
          <mxGeometry x="530" y="290" width="270" height="800" as="geometry" />
        </mxCell>
        <mxCell id="ZVE0ramNpkpX6An3514g-3" value="" style="rounded=0;whiteSpace=wrap;html=1;" vertex="1" parent="1">
          <mxGeometry x="380" y="290" width="210" height="800" as="geometry" />
        </mxCell>
        <mxCell id="ZVE0ramNpkpX6An3514g-1" value="" style="rounded=0;whiteSpace=wrap;html=1;" vertex="1" parent="1">
          <mxGeometry x="90" y="290" width="290" height="800" as="geometry" />
        </mxCell>
        <mxCell id="ZVE0ramNpkpX6An3514g-17" style="edgeStyle=orthogonalEdgeStyle;rounded=0;orthogonalLoop=1;jettySize=auto;html=1;entryX=0;entryY=0.5;entryDx=0;entryDy=0;" edge="1" parent="1" source="ZVE0ramNpkpX6An3514g-12" target="ZVE0ramNpkpX6An3514g-14">
          <mxGeometry relative="1" as="geometry">
            <Array as="points">
              <mxPoint x="690" y="410" />
              <mxPoint x="690" y="350" />
            </Array>
          </mxGeometry>
        </mxCell>
        <mxCell id="ZVE0ramNpkpX6An3514g-12" value="" style="rounded=0;whiteSpace=wrap;html=1;" vertex="1" parent="1">
          <mxGeometry x="210" y="330" width="140" height="170" as="geometry" />
        </mxCell>
        <mxCell id="ZVE0ramNpkpX6An3514g-2" value="知识百科" style="rounded=0;whiteSpace=wrap;html=1;" vertex="1" parent="1">
          <mxGeometry x="90" y="250" width="730" height="40" as="geometry" />
        </mxCell>
        <mxCell id="ZVE0ramNpkpX6An3514g-6" value="新建词条" style="rounded=0;whiteSpace=wrap;html=1;" vertex="1" parent="1">
          <mxGeometry x="100" y="330" width="50" height="170" as="geometry" />
        </mxCell>
        <mxCell id="ZVE0ramNpkpX6An3514g-7" value="附件上传" style="rounded=0;whiteSpace=wrap;html=1;" vertex="1" parent="1">
          <mxGeometry x="220" y="340" width="120" height="30" as="geometry" />
        </mxCell>
        <mxCell id="ZVE0ramNpkpX6An3514g-8" value="图片上传" style="rounded=0;whiteSpace=wrap;html=1;" vertex="1" parent="1">
          <mxGeometry x="220" y="380" width="120" height="30" as="geometry" />
        </mxCell>
        <mxCell id="ZVE0ramNpkpX6An3514g-9" value="云文档关联" style="rounded=0;whiteSpace=wrap;html=1;" vertex="1" parent="1">
          <mxGeometry x="220" y="420" width="120" height="30" as="geometry" />
        </mxCell>
        <mxCell id="ZVE0ramNpkpX6An3514g-10" value="联系人关联" style="rounded=0;whiteSpace=wrap;html=1;" vertex="1" parent="1">
          <mxGeometry x="220" y="460" width="120" height="30" as="geometry" />
        </mxCell>
        <mxCell id="ZVE0ramNpkpX6An3514g-14" value="提供服务" style="rounded=0;whiteSpace=wrap;html=1;" vertex="1" parent="1">
          <mxGeometry x="820" y="320" width="120" height="60" as="geometry" />
        </mxCell>
        <mxCell id="ZVE0ramNpkpX6An3514g-19" value="JoySpace" style="rounded=0;whiteSpace=wrap;html=1;" vertex="1" parent="1">
          <mxGeometry x="800" y="250" width="200" height="40" as="geometry" />
        </mxCell>
        <mxCell id="ZVE0ramNpkpX6An3514g-20" value="词条库" style="rounded=0;whiteSpace=wrap;html=1;" vertex="1" parent="1">
          <mxGeometry x="405" y="525" width="160" height="60" as="geometry" />
        </mxCell>
        <mxCell id="ZVE0ramNpkpX6An3514g-22" value="" style="endArrow=classic;html=1;rounded=0;entryX=0.5;entryY=0;entryDx=0;entryDy=0;" edge="1" parent="1" target="ZVE0ramNpkpX6An3514g-20">
          <mxGeometry width="50" height="50" relative="1" as="geometry">
            <mxPoint x="485" y="410" as="sourcePoint" />
            <mxPoint x="430" y="460" as="targetPoint" />
          </mxGeometry>
        </mxCell>
        <mxCell id="ZVE0ramNpkpX6An3514g-23" value="写入" style="edgeLabel;html=1;align=center;verticalAlign=middle;resizable=0;points=[];" vertex="1" connectable="0" parent="ZVE0ramNpkpX6An3514g-22">
          <mxGeometry x="-0.0667" y="3" relative="1" as="geometry">
            <mxPoint as="offset" />
          </mxGeometry>
        </mxCell>
        <mxCell id="ZVE0ramNpkpX6An3514g-25" value="词条详情" style="rounded=0;whiteSpace=wrap;html=1;" vertex="1" parent="1">
          <mxGeometry x="610" y="660" width="160" height="60" as="geometry" />
        </mxCell>
        <mxCell id="ZVE0ramNpkpX6An3514g-26" value="词条反馈" style="rounded=0;whiteSpace=wrap;html=1;" vertex="1" parent="1">
          <mxGeometry x="610" y="780" width="160" height="60" as="geometry" />
        </mxCell>
        <mxCell id="ZVE0ramNpkpX6An3514g-30" value="" style="verticalLabelPosition=bottom;verticalAlign=top;html=1;strokeWidth=2;shape=mxgraph.arrows2.arrow;dy=0.6;dx=40;notch=0;" vertex="1" parent="1">
          <mxGeometry x="150" y="400" width="60" height="40" as="geometry" />
        </mxCell>
      </root>
    </mxGraphModel>
  </diagram>
</mxfile>
